<svg width="32" height="32" viewBox="0 0 32 32" fill="none" xmlns="http://www.w3.org/2000/svg">
<path d="M16 9C15.7348 9 15.4804 9.10536 15.2929 9.2929C15.1054 9.48043 15 9.73478 15 10V16C15 16.0091 15.0011 16.0179 15.0013 16.0269C15.002 16.0471 15.0026 16.0671 15.0044 16.0872C15.0057 16.1027 15.0078 16.1179 15.0099 16.1332C15.0121 16.1493 15.0143 16.1655 15.0173 16.1815C15.0205 16.1993 15.0245 16.2167 15.0287 16.2341C15.032 16.2476 15.0353 16.2611 15.0391 16.2745C15.0442 16.2927 15.0501 16.3106 15.0563 16.3285C15.0607 16.3411 15.0652 16.3537 15.0701 16.3662C15.0769 16.3833 15.0842 16.4 15.0918 16.4166C15.0978 16.4299 15.1041 16.4431 15.1108 16.4561C15.1183 16.4708 15.1263 16.4853 15.1346 16.4996C15.1429 16.514 15.1514 16.5282 15.1605 16.5421C15.1683 16.5544 15.1766 16.5663 15.185 16.5781C15.1956 16.5931 15.2065 16.6079 15.218 16.6223C15.2263 16.6327 15.2349 16.6428 15.2435 16.6528C15.256 16.6672 15.2687 16.6814 15.282 16.6952C15.2916 16.705 15.3014 16.7144 15.3113 16.7238C15.3244 16.7363 15.3376 16.7486 15.3516 16.7605C15.3638 16.7709 15.3765 16.7808 15.3893 16.7906C15.4017 16.8002 15.414 16.8097 15.4269 16.8188C15.4432 16.8302 15.4601 16.8407 15.477 16.8512C15.4849 16.856 15.492 16.8614 15.5 16.866L20.6962 19.866C20.9258 19.9986 21.1988 20.0346 21.455 19.9659C21.7112 19.8973 21.9296 19.7297 22.0622 19.5C22.1948 19.2703 22.2307 18.9974 22.1621 18.7412C22.0934 18.485 21.9258 18.2666 21.6962 18.134L17 15.4226V10C17 9.73478 16.8946 9.48043 16.7071 9.2929C16.5196 9.10536 16.2652 9 16 9Z" fill="#8D0EBA"/>
<path d="M28.0207 6.46449C27.8894 6.46448 27.7594 6.49034 27.638 6.5406C27.5167 6.59085 27.4065 6.66451 27.3136 6.75737C27.2208 6.85023 27.1471 6.96047 27.0968 7.0818C27.0466 7.20312 27.0207 7.33316 27.0207 7.46449V10.0503L24.4851 7.51472C22.8073 5.8384 20.67 4.69716 18.3437 4.23527C16.0173 3.77337 13.6062 4.01156 11.4152 4.91972C9.22413 5.82787 7.35153 7.36523 6.03407 9.33745C4.7166 11.3097 4.01343 13.6282 4.01343 16C4.01343 18.3718 4.7166 20.6903 6.03407 22.6626C7.35153 24.6348 9.22413 26.1721 11.4152 27.0803C13.6062 27.9885 16.0173 28.2266 18.3437 27.7647C20.67 27.3029 22.8073 26.1616 24.4851 24.4853C24.6727 24.2978 24.778 24.0434 24.778 23.7782C24.778 23.513 24.6727 23.2586 24.4851 23.0711C24.3923 22.9783 24.2821 22.9046 24.1607 22.8543C24.0394 22.8041 23.9094 22.7782 23.7781 22.7782C23.5128 22.7782 23.2585 22.8836 23.071 23.0711C21.6724 24.4696 19.8906 25.422 17.9508 25.8079C16.011 26.1937 14.0003 25.9957 12.1731 25.2388C10.3458 24.4819 8.78402 23.2002 7.68521 21.5557C6.5864 19.9112 5.99991 17.9778 5.99991 16C5.99991 14.0222 6.5864 12.0888 7.68521 10.4443C8.78402 8.79982 10.3458 7.51809 12.1731 6.76121C14.0003 6.00433 16.011 5.80629 17.9508 6.19214C19.8906 6.57798 21.6724 7.53038 23.071 8.9289L25.6065 11.4645H23.0207C22.7555 11.4645 22.5012 11.5698 22.3136 11.7574C22.1261 11.9449 22.0207 12.1993 22.0207 12.4645C22.0207 12.7297 22.1261 12.9841 22.3136 13.1716C22.5012 13.3591 22.7555 13.4645 23.0207 13.4645H28.0204C28.0535 13.4645 28.0866 13.4627 28.1196 13.4595C28.1338 13.4581 28.1475 13.4554 28.1615 13.4534C28.1799 13.4509 28.1982 13.4487 28.2163 13.4451C28.2327 13.4418 28.2486 13.4373 28.2648 13.4332C28.2803 13.4294 28.2958 13.426 28.3111 13.4213C28.3271 13.4165 28.3426 13.4105 28.3583 13.4048C28.3733 13.3994 28.3885 13.3945 28.4034 13.3883C28.4182 13.3822 28.4323 13.375 28.4467 13.3682C28.4618 13.3611 28.4772 13.3543 28.4921 13.3464C28.506 13.3389 28.5193 13.3303 28.5329 13.3222C28.5473 13.3136 28.5618 13.3055 28.5759 13.2961C28.5911 13.2859 28.6055 13.2745 28.6202 13.2635C28.6316 13.255 28.6434 13.2471 28.6545 13.2379C28.7055 13.196 28.7523 13.1492 28.7942 13.0982C28.8031 13.0873 28.8109 13.0758 28.8193 13.0646C28.8305 13.0497 28.842 13.0351 28.8525 13.0195C28.8617 13.0057 28.8697 12.9914 28.8781 12.9772C28.8864 12.9634 28.8951 12.9499 28.9026 12.9357C28.9104 12.9211 28.917 12.9061 28.9241 12.8912C28.9311 12.8765 28.9384 12.8621 28.9446 12.847C28.9506 12.8326 28.9554 12.8178 28.9606 12.8032C28.9665 12.7871 28.9726 12.7712 28.9776 12.7546C28.9821 12.7399 28.9853 12.7249 28.9891 12.7101C28.9933 12.6934 28.998 12.6769 29.0014 12.6598C29.0048 12.6426 29.0068 12.6252 29.0093 12.6079C29.0115 12.5929 29.0143 12.5782 29.0157 12.5631C29.019 12.5303 29.0207 12.4974 29.0207 12.4645V7.46449C29.0207 7.33316 28.9949 7.20312 28.9446 7.0818C28.8944 6.96047 28.8207 6.85023 28.7278 6.75737C28.635 6.66451 28.5247 6.59085 28.4034 6.5406C28.2821 6.49034 28.1521 6.46448 28.0207 6.46449Z" fill="#8D0EBA"/>
</svg>
